<svg width="115" height="115" viewBox="0 0 115 115" fill="none" xmlns="http://www.w3.org/2000/svg">
<path d="M57.315 0C45.9792 0 34.8979 3.36147 25.4725 9.65932C16.0471 15.9572 8.70091 24.9086 4.36287 35.3815C0.0248337 45.8544 -1.11019 57.3786 1.10132 68.4966C3.31283 79.6146 8.77155 89.8272 16.7872 97.8428C24.8028 105.858 35.0154 111.317 46.1334 113.529C57.2514 115.74 68.7756 114.605 79.2485 110.267C89.7215 105.929 98.6729 98.5829 104.971 89.1575C111.269 79.7321 114.63 68.6508 114.63 57.315C114.629 42.1144 108.59 27.5365 97.842 16.7881C87.0935 6.03958 72.5157 0.000795574 57.315 0V0ZM71.644 38.21H65.2C62.63 38.21 62.1 39.266 62.1 41.926V47.763H71.652L70.652 57.316H62.091V90.749H47.763V57.315H38.21V47.763H47.763V36.739C47.763 28.29 52.21 23.881 62.23 23.881H71.644V38.21Z" fill="#707070"/>
</svg>
