<svg width="115" height="115" viewBox="0 0 115 115" fill="none" xmlns="http://www.w3.org/2000/svg">
<path d="M70.617 30.5032C67.103 30.3412 66.045 30.3132 57.145 30.3132C48.245 30.3132 47.192 30.3462 43.678 30.5032C34.635 30.9172 30.425 35.2032 30.011 44.1702C29.854 47.6842 29.811 48.7372 29.811 57.6372C29.811 66.5372 29.849 67.5902 30.011 71.1092C30.425 80.0572 34.611 84.3622 43.678 84.7762C47.188 84.9332 48.245 84.9762 57.145 84.9762C66.045 84.9762 67.102 84.9432 70.617 84.7762C79.66 84.3662 83.865 80.0762 84.284 71.1092C84.441 67.5952 84.474 66.5372 84.474 57.6372C84.474 48.7372 84.441 47.6842 84.284 44.1702C83.865 35.2032 79.651 30.9172 70.617 30.5032V30.5032ZM57.145 74.7562C53.7599 74.7556 50.4509 73.7513 47.6365 71.8702C44.822 69.9891 42.6286 67.3158 41.3334 64.1882C40.0382 61.0606 39.6995 57.6192 40.3601 54.2991C41.0206 50.979 42.6508 47.9293 45.0445 45.5356C47.4382 43.142 50.4878 41.5118 53.8079 40.8512C57.128 40.1907 60.5694 40.5294 63.697 41.8246C66.8246 43.1197 69.498 45.3132 71.379 48.1276C73.2601 50.942 74.2644 54.251 74.265 57.6362C74.2652 59.8845 73.8224 62.1107 72.9621 64.1879C72.1018 66.265 70.8407 68.1524 69.251 69.7421C67.6612 71.3319 65.7739 72.593 63.6967 73.4533C61.6196 74.3136 59.3933 74.7563 57.145 74.7562V74.7562ZM74.945 43.8452C74.1539 43.8452 73.3805 43.6106 72.7227 43.1711C72.0649 42.7315 71.5523 42.1068 71.2495 41.3759C70.9468 40.645 70.8675 39.8408 71.0219 39.0648C71.1762 38.2889 71.5572 37.5762 72.1166 37.0168C72.676 36.4574 73.3887 36.0764 74.1647 35.922C74.9406 35.7677 75.7448 35.8469 76.4758 36.1497C77.2067 36.4524 77.8314 36.9651 78.2709 37.6229C78.7104 38.2807 78.945 39.0541 78.945 39.8452C78.9452 40.3709 78.8417 40.8915 78.6404 41.3772C78.4392 41.8628 78.1443 42.3041 77.7724 42.6757C77.4005 43.0473 76.959 43.3419 76.4732 43.5428C75.9874 43.7436 75.4667 43.8467 74.941 43.8462L74.945 43.8452ZM68.255 57.6372C68.255 59.8345 67.6034 61.9825 66.3827 63.8096C65.1619 65.6366 63.4267 67.0606 61.3966 67.9015C59.3666 68.7424 57.1327 68.9624 54.9776 68.5337C52.8224 68.105 50.8428 67.0469 49.2891 65.4931C47.7353 63.9394 46.6772 61.9598 46.2485 59.8046C45.8198 57.6495 46.0398 55.4157 46.8807 53.3856C47.7216 51.3555 49.1456 49.6203 50.9726 48.3996C52.7997 47.1788 54.9477 46.5272 57.145 46.5272C60.0916 46.5272 62.9174 47.6977 65.001 49.7812C67.0845 51.8648 68.255 54.6906 68.255 57.6372V57.6372ZM57.145 0.492188C45.8428 0.492188 34.7944 3.84368 25.397 10.1229C15.9995 16.402 8.6751 25.3269 4.34993 35.7687C0.0247602 46.2106 -1.1069 57.7006 1.09805 68.7856C3.303 79.8707 8.74554 90.0529 16.7374 98.0448C24.7293 106.037 34.9115 111.479 45.9966 113.684C57.0816 115.889 68.5716 114.757 79.0135 110.432C89.4553 106.107 98.3802 98.7827 104.659 89.3852C110.939 79.9878 114.29 68.9394 114.29 57.6372C114.289 42.4816 108.269 27.9468 97.5521 17.2302C86.8354 6.5135 72.3007 0.492718 57.145 0.492188V0.492188ZM90.279 71.3802C89.731 83.4992 82.979 90.2142 70.893 90.7712C67.336 90.9332 66.193 90.9712 57.145 90.9712C48.097 90.9712 46.959 90.9332 43.402 90.7712C31.287 90.2142 24.567 83.4922 24.01 71.3802C23.848 67.8282 23.81 66.6892 23.81 57.6372C23.81 48.5852 23.848 47.4512 24.01 43.8942C24.567 31.7792 31.291 25.0602 43.401 24.5082C46.958 24.3412 48.092 24.3082 57.144 24.3082C66.196 24.3082 67.335 24.3462 70.892 24.5082C83.011 25.0652 89.735 31.8082 90.278 43.8942C90.44 47.4512 90.478 48.5852 90.478 57.6372C90.478 66.6892 90.441 67.8282 90.279 71.3802Z" fill="#707070"/>
</svg>
