<svg width="408" height="85" viewBox="0 0 408 85" fill="none" xmlns="http://www.w3.org/2000/svg">
<path d="M15.0938 30.5312L14.875 34.3438C15.7917 32.8229 16.9062 31.6875 18.2188 30.9375C19.5521 30.1667 21.0833 29.7812 22.8125 29.7812C24.9792 29.7812 26.75 30.2917 28.125 31.3125C29.5 32.3333 30.3854 33.625 30.7812 35.1875C31.1771 36.7292 31.375 39.3125 31.375 42.9375V72H18.75V43.2812C18.75 40.4271 18.6562 38.6875 18.4688 38.0625C18.2812 37.4375 17.7604 37.125 16.9062 37.125C16.0104 37.125 15.4479 37.4896 15.2188 38.2188C14.9896 38.9271 14.875 40.8438 14.875 43.9688V72H2.25V30.5312H15.0938ZM47.0312 46.5938H35.1875V43.8125C35.1875 40.6042 35.5521 38.1354 36.2812 36.4062C37.0312 34.6562 38.5208 33.1146 40.75 31.7812C42.9792 30.4479 45.875 29.7812 49.4375 29.7812C53.7083 29.7812 56.9271 30.5417 59.0938 32.0625C61.2604 33.5625 62.5625 35.4167 63 37.625C63.4375 39.8125 63.6562 44.3333 63.6562 51.1875V72H51.375V68.3125C50.6042 69.7917 49.6042 70.9062 48.375 71.6562C47.1667 72.3854 45.7188 72.75 44.0312 72.75C41.8229 72.75 39.7917 72.1354 37.9375 70.9062C36.1042 69.6562 35.1875 66.9375 35.1875 62.75V59.3438C35.1875 56.2396 35.6771 54.125 36.6562 53C37.6354 51.875 40.0625 50.5625 43.9375 49.0625C48.0833 47.4375 50.3021 46.3438 50.5938 45.7812C50.8854 45.2188 51.0312 44.0729 51.0312 42.3438C51.0312 40.1771 50.8646 38.7708 50.5312 38.125C50.2188 37.4583 49.6875 37.125 48.9375 37.125C48.0833 37.125 47.5521 37.4062 47.3438 37.9688C47.1354 38.5104 47.0312 39.9375 47.0312 42.25V46.5938ZM51.0312 52.2812C49.0104 53.7604 47.8333 55 47.5 56C47.1875 57 47.0312 58.4375 47.0312 60.3125C47.0312 62.4583 47.1667 63.8438 47.4375 64.4688C47.7292 65.0938 48.2917 65.4062 49.125 65.4062C49.9167 65.4062 50.4271 65.1667 50.6562 64.6875C50.9062 64.1875 51.0312 62.8958 51.0312 60.8125V52.2812ZM96.5625 45.0938V55.25C96.5625 58.9792 96.375 61.7188 96 63.4688C95.625 65.1979 94.8229 66.8229 93.5938 68.3438C92.3646 69.8438 90.7812 70.9583 88.8438 71.6875C86.9271 72.3958 84.7188 72.75 82.2188 72.75C79.4271 72.75 77.0625 72.4479 75.125 71.8438C73.1875 71.2188 71.6771 70.2917 70.5938 69.0625C69.5312 67.8125 68.7708 66.3125 68.3125 64.5625C67.8542 62.7917 67.625 60.1458 67.625 56.625V46C67.625 42.1458 68.0417 39.1354 68.875 36.9688C69.7083 34.8021 71.2083 33.0625 73.375 31.75C75.5417 30.4375 78.3125 29.7812 81.6875 29.7812C84.5208 29.7812 86.9479 30.2083 88.9688 31.0625C91.0104 31.8958 92.5833 32.9896 93.6875 34.3438C94.7917 35.6979 95.5417 37.0938 95.9375 38.5312C96.3542 39.9688 96.5625 42.1562 96.5625 45.0938ZM83.9375 41.9688C83.9375 39.8438 83.8229 38.5104 83.5938 37.9688C83.3646 37.4062 82.875 37.125 82.125 37.125C81.375 37.125 80.875 37.4062 80.625 37.9688C80.375 38.5104 80.25 39.8438 80.25 41.9688V60.6875C80.25 62.6458 80.375 63.9271 80.625 64.5312C80.875 65.1146 81.3646 65.4062 82.0938 65.4062C82.8438 65.4062 83.3333 65.1354 83.5625 64.5938C83.8125 64.0521 83.9375 62.8854 83.9375 61.0938V41.9688ZM127.938 30.5312L122.812 47.0625L129.469 72H117.312L113.375 53.9375V72H100.75V21.4062H113.375V42.6562L117.312 30.5312H127.938ZM144.375 21.4062V28H131.375V21.4062H144.375ZM144.375 30.5312V72H131.375V30.5312H144.375ZM173.094 30.5312L172.875 34.3438C173.792 32.8229 174.906 31.6875 176.219 30.9375C177.552 30.1667 179.083 29.7812 180.812 29.7812C182.979 29.7812 184.75 30.2917 186.125 31.3125C187.5 32.3333 188.385 33.625 188.781 35.1875C189.177 36.7292 189.375 39.3125 189.375 42.9375V72H176.75V43.2812C176.75 40.4271 176.656 38.6875 176.469 38.0625C176.281 37.4375 175.76 37.125 174.906 37.125C174.01 37.125 173.448 37.4896 173.219 38.2188C172.99 38.9271 172.875 40.8438 172.875 43.9688V72H160.25V30.5312H173.094ZM206.75 21.4062V28H193.75V21.4062H206.75ZM206.75 30.5312V72H193.75V30.5312H206.75ZM237.094 43.7812H225.906V41.5312C225.906 39.6146 225.792 38.4062 225.562 37.9062C225.354 37.3854 224.812 37.125 223.938 37.125C223.229 37.125 222.698 37.3646 222.344 37.8438C221.99 38.3021 221.812 39 221.812 39.9375C221.812 41.2083 221.896 42.1458 222.062 42.75C222.25 43.3333 222.781 43.9792 223.656 44.6875C224.552 45.3958 226.375 46.4271 229.125 47.7812C232.792 49.5729 235.198 51.2604 236.344 52.8438C237.49 54.4271 238.062 56.7292 238.062 59.75C238.062 63.125 237.625 65.6771 236.75 67.4062C235.875 69.1146 234.406 70.4375 232.344 71.375C230.302 72.2917 227.833 72.75 224.938 72.75C221.729 72.75 218.979 72.25 216.688 71.25C214.417 70.25 212.854 68.8958 212 67.1875C211.146 65.4792 210.719 62.8958 210.719 59.4375V57.4375H221.906V60.0625C221.906 62.2917 222.042 63.7396 222.312 64.4062C222.604 65.0729 223.167 65.4062 224 65.4062C224.896 65.4062 225.521 65.1875 225.875 64.75C226.229 64.2917 226.406 63.3438 226.406 61.9062C226.406 59.9271 226.177 58.6875 225.719 58.1875C225.24 57.6875 222.792 56.2083 218.375 53.75C214.667 51.6667 212.406 49.7812 211.594 48.0938C210.781 46.3854 210.375 44.3646 210.375 42.0312C210.375 38.7188 210.812 36.2812 211.688 34.7188C212.562 33.1354 214.042 31.9167 216.125 31.0625C218.229 30.2083 220.667 29.7812 223.438 29.7812C226.188 29.7812 228.521 30.1354 230.438 30.8438C232.375 31.5312 233.854 32.4479 234.875 33.5938C235.917 34.7396 236.542 35.8021 236.75 36.7812C236.979 37.7604 237.094 39.2917 237.094 41.375V43.7812ZM254.062 21.4062V32.7812C255.146 31.7812 256.312 31.0312 257.562 30.5312C258.833 30.0312 260.188 29.7812 261.625 29.7812C263.833 29.7812 265.708 30.3438 267.25 31.4688C268.812 32.5938 269.76 33.8958 270.094 35.375C270.448 36.8333 270.625 39.5104 270.625 43.4062V72H258V42.8125C258 40.3958 257.875 38.8438 257.625 38.1562C257.396 37.4688 256.865 37.125 256.031 37.125C255.26 37.125 254.74 37.4792 254.469 38.1875C254.198 38.8958 254.062 40.3021 254.062 42.4062V72H241.438V21.4062H254.062ZM288 21.4062V28H275V21.4062H288ZM288 30.5312V72H275V30.5312H288ZM305.938 21.4062V28H292.938V21.4062H305.938ZM305.938 30.5312V63.3438C305.938 67.1979 305.854 69.8125 305.688 71.1875C305.542 72.5417 305.062 73.7292 304.25 74.75C303.458 75.7917 302.385 76.5625 301.031 77.0625C299.698 77.5625 297.688 77.8125 295 77.8125H290.125V71.1875C291.625 71.1875 292.469 71.0208 292.656 70.6875C292.844 70.3542 292.938 68.2708 292.938 64.4375V30.5312H305.938ZM323.5 21.4062V28H310.5V21.4062H323.5ZM323.5 30.5312V72H310.5V30.5312H323.5ZM340.531 30.5312L340.312 34.4688C341.292 32.9062 342.458 31.7396 343.812 30.9688C345.167 30.1771 346.708 29.7812 348.438 29.7812C351.812 29.7812 354.469 31.3438 356.406 34.4688C357.469 32.9062 358.667 31.7396 360 30.9688C361.333 30.1771 362.812 29.7812 364.438 29.7812C366.583 29.7812 368.354 30.3021 369.75 31.3438C371.167 32.3854 372.073 33.6667 372.469 35.1875C372.865 36.6875 373.062 39.1354 373.062 42.5312V72H360.812V44.9688C360.812 41.4271 360.688 39.2396 360.438 38.4062C360.208 37.5521 359.656 37.125 358.781 37.125C357.885 37.125 357.302 37.5417 357.031 38.375C356.781 39.2083 356.656 41.4062 356.656 44.9688V72H344.406V45.6562C344.406 41.5938 344.302 39.1562 344.094 38.3438C343.906 37.5312 343.365 37.125 342.469 37.125C341.906 37.125 341.427 37.3438 341.031 37.7812C340.635 38.1979 340.417 38.7188 340.375 39.3438C340.333 39.9479 340.312 41.25 340.312 43.25V72H328.062V30.5312H340.531ZM388.719 46.5938H376.875V43.8125C376.875 40.6042 377.24 38.1354 377.969 36.4062C378.719 34.6562 380.208 33.1146 382.438 31.7812C384.667 30.4479 387.562 29.7812 391.125 29.7812C395.396 29.7812 398.615 30.5417 400.781 32.0625C402.948 33.5625 404.25 35.4167 404.688 37.625C405.125 39.8125 405.344 44.3333 405.344 51.1875V72H393.062V68.3125C392.292 69.7917 391.292 70.9062 390.062 71.6562C388.854 72.3854 387.406 72.75 385.719 72.75C383.51 72.75 381.479 72.1354 379.625 70.9062C377.792 69.6562 376.875 66.9375 376.875 62.75V59.3438C376.875 56.2396 377.365 54.125 378.344 53C379.323 51.875 381.75 50.5625 385.625 49.0625C389.771 47.4375 391.99 46.3438 392.281 45.7812C392.573 45.2188 392.719 44.0729 392.719 42.3438C392.719 40.1771 392.552 38.7708 392.219 38.125C391.906 37.4583 391.375 37.125 390.625 37.125C389.771 37.125 389.24 37.4062 389.031 37.9688C388.823 38.5104 388.719 39.9375 388.719 42.25V46.5938ZM392.719 52.2812C390.698 53.7604 389.521 55 389.188 56C388.875 57 388.719 58.4375 388.719 60.3125C388.719 62.4583 388.854 63.8438 389.125 64.4688C389.417 65.0938 389.979 65.4062 390.812 65.4062C391.604 65.4062 392.115 65.1667 392.344 64.6875C392.594 64.1875 392.719 62.8958 392.719 60.8125V52.2812Z" fill="#D7D2CB"/>
<path d="M15.0938 23.5312L14.875 27.3438C15.7917 25.8229 16.9062 24.6875 18.2188 23.9375C19.5521 23.1667 21.0833 22.7812 22.8125 22.7812C24.9792 22.7812 26.75 23.2917 28.125 24.3125C29.5 25.3333 30.3854 26.625 30.7812 28.1875C31.1771 29.7292 31.375 32.3125 31.375 35.9375V65H18.75V36.2812C18.75 33.4271 18.6562 31.6875 18.4688 31.0625C18.2812 30.4375 17.7604 30.125 16.9062 30.125C16.0104 30.125 15.4479 30.4896 15.2188 31.2188C14.9896 31.9271 14.875 33.8438 14.875 36.9688V65H2.25V23.5312H15.0938ZM47.0312 39.5938H35.1875V36.8125C35.1875 33.6042 35.5521 31.1354 36.2812 29.4062C37.0312 27.6562 38.5208 26.1146 40.75 24.7812C42.9792 23.4479 45.875 22.7812 49.4375 22.7812C53.7083 22.7812 56.9271 23.5417 59.0938 25.0625C61.2604 26.5625 62.5625 28.4167 63 30.625C63.4375 32.8125 63.6562 37.3333 63.6562 44.1875V65H51.375V61.3125C50.6042 62.7917 49.6042 63.9062 48.375 64.6562C47.1667 65.3854 45.7188 65.75 44.0312 65.75C41.8229 65.75 39.7917 65.1354 37.9375 63.9062C36.1042 62.6562 35.1875 59.9375 35.1875 55.75V52.3438C35.1875 49.2396 35.6771 47.125 36.6562 46C37.6354 44.875 40.0625 43.5625 43.9375 42.0625C48.0833 40.4375 50.3021 39.3438 50.5938 38.7812C50.8854 38.2188 51.0312 37.0729 51.0312 35.3438C51.0312 33.1771 50.8646 31.7708 50.5312 31.125C50.2188 30.4583 49.6875 30.125 48.9375 30.125C48.0833 30.125 47.5521 30.4062 47.3438 30.9688C47.1354 31.5104 47.0312 32.9375 47.0312 35.25V39.5938ZM51.0312 45.2812C49.0104 46.7604 47.8333 48 47.5 49C47.1875 50 47.0312 51.4375 47.0312 53.3125C47.0312 55.4583 47.1667 56.8438 47.4375 57.4688C47.7292 58.0938 48.2917 58.4062 49.125 58.4062C49.9167 58.4062 50.4271 58.1667 50.6562 57.6875C50.9062 57.1875 51.0312 55.8958 51.0312 53.8125V45.2812ZM96.5625 38.0938V48.25C96.5625 51.9792 96.375 54.7188 96 56.4688C95.625 58.1979 94.8229 59.8229 93.5938 61.3438C92.3646 62.8438 90.7812 63.9583 88.8438 64.6875C86.9271 65.3958 84.7188 65.75 82.2188 65.75C79.4271 65.75 77.0625 65.4479 75.125 64.8438C73.1875 64.2188 71.6771 63.2917 70.5938 62.0625C69.5312 60.8125 68.7708 59.3125 68.3125 57.5625C67.8542 55.7917 67.625 53.1458 67.625 49.625V39C67.625 35.1458 68.0417 32.1354 68.875 29.9688C69.7083 27.8021 71.2083 26.0625 73.375 24.75C75.5417 23.4375 78.3125 22.7812 81.6875 22.7812C84.5208 22.7812 86.9479 23.2083 88.9688 24.0625C91.0104 24.8958 92.5833 25.9896 93.6875 27.3438C94.7917 28.6979 95.5417 30.0938 95.9375 31.5312C96.3542 32.9688 96.5625 35.1562 96.5625 38.0938ZM83.9375 34.9688C83.9375 32.8438 83.8229 31.5104 83.5938 30.9688C83.3646 30.4062 82.875 30.125 82.125 30.125C81.375 30.125 80.875 30.4062 80.625 30.9688C80.375 31.5104 80.25 32.8438 80.25 34.9688V53.6875C80.25 55.6458 80.375 56.9271 80.625 57.5312C80.875 58.1146 81.3646 58.4062 82.0938 58.4062C82.8438 58.4062 83.3333 58.1354 83.5625 57.5938C83.8125 57.0521 83.9375 55.8854 83.9375 54.0938V34.9688ZM127.938 23.5312L122.812 40.0625L129.469 65H117.312L113.375 46.9375V65H100.75V14.4062H113.375V35.6562L117.312 23.5312H127.938ZM144.375 14.4062V21H131.375V14.4062H144.375ZM144.375 23.5312V65H131.375V23.5312H144.375ZM173.094 23.5312L172.875 27.3438C173.792 25.8229 174.906 24.6875 176.219 23.9375C177.552 23.1667 179.083 22.7812 180.812 22.7812C182.979 22.7812 184.75 23.2917 186.125 24.3125C187.5 25.3333 188.385 26.625 188.781 28.1875C189.177 29.7292 189.375 32.3125 189.375 35.9375V65H176.75V36.2812C176.75 33.4271 176.656 31.6875 176.469 31.0625C176.281 30.4375 175.76 30.125 174.906 30.125C174.01 30.125 173.448 30.4896 173.219 31.2188C172.99 31.9271 172.875 33.8438 172.875 36.9688V65H160.25V23.5312H173.094ZM206.75 14.4062V21H193.75V14.4062H206.75ZM206.75 23.5312V65H193.75V23.5312H206.75ZM237.094 36.7812H225.906V34.5312C225.906 32.6146 225.792 31.4062 225.562 30.9062C225.354 30.3854 224.812 30.125 223.938 30.125C223.229 30.125 222.698 30.3646 222.344 30.8438C221.99 31.3021 221.812 32 221.812 32.9375C221.812 34.2083 221.896 35.1458 222.062 35.75C222.25 36.3333 222.781 36.9792 223.656 37.6875C224.552 38.3958 226.375 39.4271 229.125 40.7812C232.792 42.5729 235.198 44.2604 236.344 45.8438C237.49 47.4271 238.062 49.7292 238.062 52.75C238.062 56.125 237.625 58.6771 236.75 60.4062C235.875 62.1146 234.406 63.4375 232.344 64.375C230.302 65.2917 227.833 65.75 224.938 65.75C221.729 65.75 218.979 65.25 216.688 64.25C214.417 63.25 212.854 61.8958 212 60.1875C211.146 58.4792 210.719 55.8958 210.719 52.4375V50.4375H221.906V53.0625C221.906 55.2917 222.042 56.7396 222.312 57.4062C222.604 58.0729 223.167 58.4062 224 58.4062C224.896 58.4062 225.521 58.1875 225.875 57.75C226.229 57.2917 226.406 56.3438 226.406 54.9062C226.406 52.9271 226.177 51.6875 225.719 51.1875C225.24 50.6875 222.792 49.2083 218.375 46.75C214.667 44.6667 212.406 42.7812 211.594 41.0938C210.781 39.3854 210.375 37.3646 210.375 35.0312C210.375 31.7188 210.812 29.2812 211.688 27.7188C212.562 26.1354 214.042 24.9167 216.125 24.0625C218.229 23.2083 220.667 22.7812 223.438 22.7812C226.188 22.7812 228.521 23.1354 230.438 23.8438C232.375 24.5312 233.854 25.4479 234.875 26.5938C235.917 27.7396 236.542 28.8021 236.75 29.7812C236.979 30.7604 237.094 32.2917 237.094 34.375V36.7812ZM254.062 14.4062V25.7812C255.146 24.7812 256.312 24.0312 257.562 23.5312C258.833 23.0312 260.188 22.7812 261.625 22.7812C263.833 22.7812 265.708 23.3438 267.25 24.4688C268.812 25.5938 269.76 26.8958 270.094 28.375C270.448 29.8333 270.625 32.5104 270.625 36.4062V65H258V35.8125C258 33.3958 257.875 31.8438 257.625 31.1562C257.396 30.4688 256.865 30.125 256.031 30.125C255.26 30.125 254.74 30.4792 254.469 31.1875C254.198 31.8958 254.062 33.3021 254.062 35.4062V65H241.438V14.4062H254.062ZM288 14.4062V21H275V14.4062H288ZM288 23.5312V65H275V23.5312H288ZM305.938 14.4062V21H292.938V14.4062H305.938ZM305.938 23.5312V56.3438C305.938 60.1979 305.854 62.8125 305.688 64.1875C305.542 65.5417 305.062 66.7292 304.25 67.75C303.458 68.7917 302.385 69.5625 301.031 70.0625C299.698 70.5625 297.688 70.8125 295 70.8125H290.125V64.1875C291.625 64.1875 292.469 64.0208 292.656 63.6875C292.844 63.3542 292.938 61.2708 292.938 57.4375V23.5312H305.938ZM323.5 14.4062V21H310.5V14.4062H323.5ZM323.5 23.5312V65H310.5V23.5312H323.5ZM340.531 23.5312L340.312 27.4688C341.292 25.9062 342.458 24.7396 343.812 23.9688C345.167 23.1771 346.708 22.7812 348.438 22.7812C351.812 22.7812 354.469 24.3438 356.406 27.4688C357.469 25.9062 358.667 24.7396 360 23.9688C361.333 23.1771 362.812 22.7812 364.438 22.7812C366.583 22.7812 368.354 23.3021 369.75 24.3438C371.167 25.3854 372.073 26.6667 372.469 28.1875C372.865 29.6875 373.062 32.1354 373.062 35.5312V65H360.812V37.9688C360.812 34.4271 360.688 32.2396 360.438 31.4062C360.208 30.5521 359.656 30.125 358.781 30.125C357.885 30.125 357.302 30.5417 357.031 31.375C356.781 32.2083 356.656 34.4062 356.656 37.9688V65H344.406V38.6562C344.406 34.5938 344.302 32.1562 344.094 31.3438C343.906 30.5312 343.365 30.125 342.469 30.125C341.906 30.125 341.427 30.3438 341.031 30.7812C340.635 31.1979 340.417 31.7188 340.375 32.3438C340.333 32.9479 340.312 34.25 340.312 36.25V65H328.062V23.5312H340.531ZM388.719 39.5938H376.875V36.8125C376.875 33.6042 377.24 31.1354 377.969 29.4062C378.719 27.6562 380.208 26.1146 382.438 24.7812C384.667 23.4479 387.562 22.7812 391.125 22.7812C395.396 22.7812 398.615 23.5417 400.781 25.0625C402.948 26.5625 404.25 28.4167 404.688 30.625C405.125 32.8125 405.344 37.3333 405.344 44.1875V65H393.062V61.3125C392.292 62.7917 391.292 63.9062 390.062 64.6562C388.854 65.3854 387.406 65.75 385.719 65.75C383.51 65.75 381.479 65.1354 379.625 63.9062C377.792 62.6562 376.875 59.9375 376.875 55.75V52.3438C376.875 49.2396 377.365 47.125 378.344 46C379.323 44.875 381.75 43.5625 385.625 42.0625C389.771 40.4375 391.99 39.3438 392.281 38.7812C392.573 38.2188 392.719 37.0729 392.719 35.3438C392.719 33.1771 392.552 31.7708 392.219 31.125C391.906 30.4583 391.375 30.125 390.625 30.125C389.771 30.125 389.24 30.4062 389.031 30.9688C388.823 31.5104 388.719 32.9375 388.719 35.25V39.5938ZM392.719 45.2812C390.698 46.7604 389.521 48 389.188 49C388.875 50 388.719 51.4375 388.719 53.3125C388.719 55.4583 388.854 56.8438 389.125 57.4688C389.417 58.0938 389.979 58.4062 390.812 58.4062C391.604 58.4062 392.115 58.1667 392.344 57.6875C392.594 57.1875 392.719 55.8958 392.719 53.8125V45.2812Z" fill="#C64B39"/>
</svg>
