<svg width="115" height="115" viewBox="0 0 115 115" fill="none" xmlns="http://www.w3.org/2000/svg">
<path d="M57.03 0.626953C45.7506 0.626953 34.7244 3.9717 25.3459 10.2382C15.9673 16.5048 8.65764 25.4116 4.34118 35.8325C0.0247102 46.2534 -1.10467 57.7202 1.09584 68.783C3.29636 79.8457 8.72794 90.0075 16.7037 97.9833C24.6795 105.959 34.8413 111.391 45.904 113.591C56.9668 115.792 68.4336 114.662 78.8545 110.346C89.2753 106.029 98.1822 98.7197 104.449 89.3411C110.715 79.9626 114.06 68.9364 114.06 57.657C114.059 42.5319 108.05 28.0266 97.3554 17.3315C86.6604 6.6365 72.1551 0.627749 57.03 0.626953V0.626953ZM26.53 69.933C25.6571 69.1347 24.9599 68.1634 24.4829 67.0808C24.0059 65.9983 23.7596 64.8284 23.7596 63.6455C23.7596 62.4625 24.0059 61.2926 24.4829 60.2101C24.9599 59.1276 25.6571 58.1562 26.53 57.358V69.933ZM32.076 71.915C31.1365 71.9687 30.1954 71.8397 29.305 71.535V55.766C30.1901 55.4405 31.1387 55.3251 32.076 55.429V71.915ZM37.622 71.915H34.85V56.207L35.705 56.707C36.0841 55.1854 36.7346 53.7447 37.625 52.454V71.914L37.622 71.915ZM43.163 71.915H40.4V49.549C41.247 48.901 42.1795 48.3734 43.171 47.981L43.163 71.915ZM48.709 71.915H45.942V47.358C46.86 47.2042 47.7978 47.2124 48.713 47.382L48.709 71.915ZM54.255 71.915H51.484V48.215L52.539 48.724C53.0338 47.8779 53.6098 47.0822 54.259 46.348V71.915H54.255ZM82.223 71.915H57.03V43.856C59.2751 42.2855 61.9462 41.438 64.686 41.427C72.209 41.427 78.307 47.639 78.867 55.504C84.285 52.852 90.297 57.12 90.297 63.304C90.3653 65.5151 89.5542 67.6632 88.0415 69.2775C86.5289 70.8917 84.438 71.8405 82.227 71.916L82.223 71.915Z" fill="#707070"/>
</svg>
