<svg width="113" height="114" viewBox="0 0 113 114" fill="none" xmlns="http://www.w3.org/2000/svg">
<circle cx="56.5" cy="57.127" r="56.5" fill="#707070"/>
<path d="M57.8391 26.6784C61.1658 26.627 64.4734 26.6575 67.7772 26.627C67.9774 30.5178 69.3767 34.4811 72.2249 37.232C75.0674 40.0515 79.088 41.3421 83 41.7786V52.0138C79.334 51.8937 75.6508 51.1312 72.324 49.5527C70.8752 48.897 69.5254 48.0524 68.2043 47.1889C68.1871 54.616 68.2348 62.0336 68.1566 69.4303C67.9583 72.9837 66.7859 76.52 64.7193 79.4481C61.3945 84.3227 55.6238 87.5006 49.6968 87.5997C46.0612 87.8075 42.4295 86.8162 39.3315 84.9899C34.1976 81.9626 30.5849 76.4209 30.0587 70.473C29.9924 69.2134 29.9823 67.9514 30.0282 66.6908C30.4858 61.8544 32.8783 57.2277 36.592 54.0803C40.8014 50.4144 46.698 48.6682 52.2189 49.7014C52.2704 53.4665 52.1198 57.2277 52.1198 60.9928C49.5976 60.1768 46.6503 60.4056 44.4465 61.9364C42.8341 62.9985 41.6156 64.5613 40.9787 66.3839C40.4525 67.6726 40.6031 69.1043 40.6336 70.473C41.238 74.6441 45.2491 78.1499 49.5309 77.7706C52.3696 77.7401 55.09 76.093 56.5694 73.6814C57.0479 72.8369 57.5836 71.9733 57.6122 70.9801C57.862 66.4335 57.7628 61.9059 57.7933 57.3592C57.8143 47.1126 57.7628 36.8946 57.841 26.6803L57.8391 26.6784Z" fill="#D7D2CB"/>
</svg>
