<svg width="115" height="115" viewBox="0 0 115 115" fill="none" xmlns="http://www.w3.org/2000/svg">
<path d="M57.07 0.626953C45.7826 0.626953 34.7487 3.97405 25.3636 10.245C15.9785 16.5159 8.66371 25.429 4.34422 35.8572C0.0247273 46.2854 -1.10545 57.7603 1.09661 68.8308C3.29867 79.9013 8.73406 90.0702 16.7154 98.0515C24.6968 106.033 34.8657 111.468 45.9362 113.67C57.0067 115.872 68.4816 114.742 78.9098 110.423C89.3379 106.103 98.2511 98.7885 104.522 89.4033C110.793 80.0182 114.14 68.9843 114.14 57.697C114.139 42.5613 108.126 28.0458 97.4237 17.3432C86.7212 6.64072 72.2057 0.627749 57.07 0.626953V0.626953ZM78.191 80.963C68.191 81.648 45.927 81.648 35.945 80.963C25.12 80.221 23.86 74.927 23.779 57.697C23.86 40.438 25.135 35.173 35.945 34.427C45.927 33.742 68.199 33.742 78.191 34.427C89.02 35.169 90.276 40.467 90.361 57.693C90.275 74.956 89.005 80.221 78.191 80.963ZM47.559 46.563L70.943 57.678L47.558 68.835L47.559 46.563Z" fill="#707070"/>
</svg>
